
<svg width="112" height="112" xmlns="http://www.w3.org/2000/svg" fill="none">
 <mask height="112" width="112" y="0" x="0" maskUnits="userSpaceOnUse" id="mask0_33_820">
  <path id="svg_1" fill="white" d="m56,112c30.9279,0 56,-25.0721 56,-56c0,-30.9279 -25.0721,-56 -56,-56c-30.9279,0 -56,25.0721 -56,56c0,30.9279 25.0721,56 56,56z"/>
 </mask>
 <defs>
  <linearGradient y2="1" x2="0.5" y1="0" x1="0.5" id="paint0_linear_33_820">
   <stop stop-color="#806A6A"/>
   <stop stop-color="#665654" offset="1"/>
  </linearGradient>
  <linearGradient y2="1" x2="0.5" y1="0" x1="0.5" id="paint1_linear_33_820">
   <stop stop-color="#1D0024"/>
   <stop stop-color="#100014" offset="1"/>
  </linearGradient>
  <linearGradient y2="1" x2="0.5" y1="0" x1="0.5" id="paint2_linear_33_820">
   <stop stop-color="#1D0024"/>
   <stop stop-color="#100014" offset="1"/>
  </linearGradient>
  <linearGradient y2="1" x2="0.5" y1="0" x1="0.5" id="paint3_linear_33_820">
   <stop stop-color="#F7B186"/>
   <stop stop-color="#FFC299" offset="1"/>
  </linearGradient>
  <linearGradient y2="0" x2="0.5" y1="1" x1="0.5" id="paint4_linear_33_820">
   <stop stop-color="#FCF2EB"/>
   <stop stop-color="#FFF9F5" offset="1"/>
  </linearGradient>
  <linearGradient y2="1" x2="0.5" y1="0" x1="0.5" id="paint5_linear_33_820">
   <stop stop-color="#1D0024"/>
   <stop stop-color="#100014" offset="1"/>
  </linearGradient>
 </defs>
 <g>
  <title>Layer 1</title>
  <g id="svg_2" mask="url(#mask0_33_820)">
   <path id="svg_3" fill="url(#paint0_linear_33_820)" d="m56,112c30.9279,0 56,-25.0721 56,-56c0,-30.9279 -25.0721,-56 -56,-56c-30.9279,0 -56,25.0721 -56,56c0,30.9279 25.0721,56 56,56z"/>
   <path id="svg_4" fill="url(#paint1_linear_33_820)" d="m60.0559,18.5566c-1.4933,-6.5334 5.5877,-11.54689 12.88,-8.1052c17.1734,8.1052 7.2081,20.2385 1.0481,18.9318c-6.16,-1.3066 -12.4347,-4.2933 -13.9281,-10.8266z"/>
   <path id="svg_5" fill="url(#paint2_linear_33_820)" d="m64.2138,59.7335c-8.0205,3.853 -9.1904,3.6466 -26.88,-10.8267c-26.6933,-21.84 -1.4933,-41.81333 25.5733,-31.1733c29.3067,12.88 19.4881,33.2657 1.3067,42z"/>
   <path id="svg_6" fill="url(#paint3_linear_33_820)" d="m64.9597,75.04c-2.7377,5.9734 -6.2222,8.96 -8.96,8.96c-2.7377,0 -6.2222,-2.9866 -8.96,-8.96l0,-7.4666c-0.812,0.0238 -1.4964,0.0238 -2.0533,0c-8.732,-0.37431 -11.65,-14.4207 -10.2797,-28.4713c1.0036,-10.2896 9.7197,3.8313 23.9064,-6.0621c-0.56,10.8267 4.1066,9.7067 6.16,8.4c9.3333,-4.2933 9.52,13.2534 0.2953,11.8936c0.0038,0.1868 -0.0325,7.4223 -0.1087,21.7064z" clip-rule="evenodd" fill-rule="evenodd"/>
   <path id="svg_7" fill="#FF9768" d="m47.04,67.5732c3.36,-0.24889 7.5456,-2.1281 12.5566,-5.6375c-1.5354,5.2881 -5.721,8.4117 -12.5566,9.3709l0,-3.73341z"/>
   <path id="svg_8" fill="url(#paint4_linear_33_820)" d="m43.9533,77.2117c0.3755,-2.5925 1.0036,-3.9998 1.8842,-4.222c1.3208,-0.3332 9.0405,-0.3733 9.0475,1.12c0.0013,0.27409 0.2657,3.212 1.1461,3.212c0.8804,0 1.1067,-2.938 1.1079,-3.212c0.007,-1.4933 7.682,-1.4356 9.0476,-1.12c0.9104,0.2105 1.5366,1.6195 1.8786,4.227c13.4393,6.32861 20.8664,10.84361 22.2815,13.54501c1.8251,3.4844 3.194,11.5733 4.1066,24.2663c-8.4622,0 -14.8089,0 -19.04,0c-12.8592,0 -32.1481,0 -57.8667,0c0.9126,-12.693 2.2815,-20.7819 4.1067,-24.2663c1.4144,-2.7002 8.8477,-7.2169 22.3,-13.55z" clip-rule="evenodd" fill-rule="evenodd"/>
   <path id="svg_9" fill="#FBE8EB" d="m55.9999,101.173c0.8248,0 1.4934,0.66901 1.4934,1.494c0,0.825 -0.6686,1.493 -1.4934,1.493c-0.8247,0 -1.4933,-0.66801 -1.4933,-1.493c0,-0.825 0.6686,-1.494 1.4933,-1.494zm0,-7.46619c0.8248,0 1.4934,0.66859 1.4934,1.4933c0,0.8248 -0.6686,1.49329 -1.4934,1.49329c-0.8247,0 -1.4933,-0.6685 -1.4933,-1.49329c0,-0.82471 0.6686,-1.4933 1.4933,-1.4933zm0,-7.46671c0.8248,0 1.4934,0.6686 1.4934,1.4933c0,0.8248 -0.6686,1.4934 -1.4934,1.4934c-0.8247,0 -1.4933,-0.6686 -1.4933,-1.4934c0,-0.8247 0.6686,-1.4933 1.4933,-1.4933z" clip-rule="evenodd" fill-rule="evenodd"/>
   <path id="svg_10" fill="url(#paint5_linear_33_820)" d="m59.9537,29.653c-5.9734,14.9334 -2.6134,22.2134 2.0533,30.9867c3.1111,5.8489 2.7378,11.5111 -1.12,16.9867c4.48,-2.8623 6.72,-7.46671 6.72,-13.8134c0,-9.52 -6.72,-15.4933 -1.12,-23.3333c5.6,-7.84 -0.56,-25.76 -6.5333,-10.8267z"/>
  </g>
 </g>
</svg>