<svg width="40" height="48" viewBox="0 0 40 48" fill="none" xmlns="http://www.w3.org/2000/svg">
<path d="M0 0H40V48L20.5263 40.1633L0 48V0Z" fill="#9D9C9D"/>
<path fill-rule="evenodd" clip-rule="evenodd" d="M29.7754 19.3594C29.6316 19.5015 29.437 19.5802 29.2348 19.5778V19.5602C28.8122 19.5602 28.4697 19.2177 28.4697 18.7951V16.2533C28.4697 13.2014 26.7986 11.5303 23.7555 11.5303H16.2533C13.2102 11.5303 11.5303 13.2102 11.5303 16.2533V23.7555C11.5303 26.7898 13.2102 28.4697 16.2533 28.4697H23.7555C26.7986 28.4697 28.4697 26.7898 28.4697 23.7555C28.4697 23.3329 28.8122 22.9903 29.2348 22.9903C29.6574 22.9903 30 23.3329 30 23.7555C30 27.6077 27.6077 30 23.7555 30H16.2533C12.3923 30 10 27.6077 10 23.7555V16.2533C10 12.3923 12.3923 10 16.2533 10H23.7555C27.5901 10 30 12.3923 30 16.2533V18.8215C30 19.0236 29.9191 19.2173 29.7754 19.3594ZM20.0352 15.8487C20.1175 15.8487 20.1984 15.8621 20.275 15.8877C20.5937 15.9801 20.8267 16.2742 20.8267 16.6227V19.015H23.4301C23.5203 19.0139 23.6091 19.029 23.6925 19.0587C23.8089 19.0953 23.9158 19.16 24.0032 19.2484C24.1453 19.3921 24.224 19.5868 24.2216 19.7889C24.2217 20.2047 23.8898 20.5445 23.4741 20.5541H23.4213H16.6579C16.5928 20.5526 16.5297 20.5431 16.4696 20.5266C16.1266 20.4494 15.8704 20.1449 15.8663 19.7801C15.864 19.578 15.9426 19.3833 16.0847 19.2396C16.2268 19.0958 16.4206 19.0149 16.6227 19.015H19.2612V16.6139C19.2707 16.1919 19.6131 15.8534 20.0352 15.8487ZM19.2788 23.3509V22.4714V22.3835C19.2857 22.1805 19.373 21.9886 19.5214 21.85C19.6699 21.7114 19.8674 21.6376 20.0704 21.6447C20.2741 21.6492 20.4675 21.7358 20.6066 21.8848C20.7456 22.0338 20.8187 22.2326 20.8091 22.4362V23.4037C20.8023 23.6067 20.715 23.7986 20.5665 23.9372C20.418 24.0757 20.2206 24.1496 20.0176 24.1425C19.597 24.1235 19.2688 23.7718 19.2788 23.3509Z" fill="#3B3A3A"/>
</svg>
