<svg width="17" height="24" viewBox="0 0 17 24" fill="none" xmlns="http://www.w3.org/2000/svg">
<path d="M7.49265 17.8974L3.98265 16.6983L2.9537 16.6924L1.15387 21.9923C1.09652 22.1611 1.22998 22.3337 1.40345 22.3151L3.92635 22.0443C3.99683 22.0368 4.06689 22.0618 4.11757 22.1125L5.9312 23.9303C6.05588 24.0553 6.26507 24.0049 6.32237 23.8361L8.134 18.5015L7.49265 17.8974Z" fill="#E01E37"/>
<path d="M8.13387 18.5015L8.49993 17.4236L3.31858 15.6177L2.95361 16.6924C4.42492 17.7684 6.2064 18.4271 8.13387 18.5015V18.5015Z" fill="#E01E37"/>
<path d="M9.50747 17.8974L13.0175 16.6983L14.0464 16.6924L15.8463 21.9924C15.9036 22.1612 15.7702 22.3338 15.5967 22.3151L13.0738 22.0444C13.0033 22.0368 12.9333 22.0618 12.8826 22.1126L11.069 23.9304C10.9443 24.0553 10.7351 24.0049 10.6778 23.8361L8.86621 18.5015L9.50747 17.8974Z" fill="#E01E37"/>
<path d="M8.86607 18.5015L8.5 17.4236L13.6814 15.6177L14.0463 16.6924C12.575 17.7684 10.7935 18.4271 8.86607 18.5015Z" fill="#E01E37"/>
<path d="M8.49721 16.6924C0.00781965 16.6924 0.000776102 8.41819 0.00781934 8.27274C0.230962 3.66535 3.94645 0 8.49721 0C13.048 0 16.7635 3.66535 16.9866 8.27274C16.9936 8.41819 16.9866 16.6924 8.49721 16.6924Z" fill="#BD8969"/>
<path d="M8.5 16.5454C3.94924 16.5454 0.23389 12.8801 0.0107021 8.27271C0.00365888 8.41816 0 8.56455 0 8.71178C0 13.5232 3.80559 17.4236 8.5 17.4236C13.1944 17.4236 17 13.5232 17 8.71178C17 8.56455 16.9963 8.41816 16.9893 8.27271C16.7661 12.8801 13.0508 16.5454 8.5 16.5454V16.5454Z" fill="#BD8969"/>
<path d="M15.1962 8.71182C15.1962 11.6506 12.1982 15.153 8.50003 15.153C4.80183 15.153 1.80383 11.4579 1.80383 8.71182C1.80383 8.56431 1.80836 8.41792 1.81733 8.2727C2.03823 4.68694 4.94576 1.84875 8.50003 1.84875C12.0543 1.84875 14.9618 4.68694 15.1827 8.2727C15.1917 8.41792 15.1962 8.56431 15.1962 8.71182Z" fill="#BD8969"/>
<path d="M8.50003 14.6966C4.9458 14.6966 2.03882 11.8584 1.81787 8.27271C1.80891 8.41792 1.80383 8.56422 1.80383 8.71178C1.80383 12.5021 4.80183 15.5749 8.50003 15.5749C12.1982 15.5749 15.1962 12.5021 15.1962 8.71178C15.1962 8.56422 15.1912 8.41792 15.1822 8.27271C14.9612 11.8584 12.0543 14.6966 8.50003 14.6966Z" fill="#BC672E"/>
<path d="M8.50849 12.7885C7.06631 12.7885 6.14868 11.7696 5.97205 10.5607C5.956 10.4507 5.95092 10.2147 5.95092 10.2147C6.07372 9.89405 6.37841 9.66699 6.73483 9.66699C7.19973 9.66699 7.57663 10.0532 7.57663 10.5298C7.57663 11.0564 7.99465 11.4848 8.50849 11.4848C9.02232 11.4848 9.44039 11.0564 9.44039 10.5298C9.44039 10.3714 9.40261 10.222 9.33579 10.0904C9.33579 10.0904 9.27259 9.2768 8.55358 9.2768C7.83234 9.2768 7.78404 8.27236 7.78404 8.27236C7.93071 8.019 8.20028 7.84917 8.50853 7.84917C9.02237 7.84917 9.44044 7.42074 9.44044 6.8941C9.44044 6.36745 9.02237 5.93902 8.50853 5.93902C7.9947 5.93902 7.57668 6.36745 7.57668 6.8941C7.57668 7.37063 7.19977 7.75688 6.73487 7.75688C6.26997 7.75688 5.89307 7.37063 5.89307 6.8941C5.89307 5.41603 7.06636 4.2135 8.50849 4.2135C9.95066 4.2135 11.124 5.41603 11.124 6.8941C11.124 7.59497 10.8602 8.23378 10.4291 8.71195C10.7683 9.08817 11.0039 9.56386 11.089 10.091C11.089 10.091 11.0916 10.3803 11.0671 10.5276C10.8584 11.7849 9.95066 12.7885 8.50849 12.7885V12.7885Z" fill="#FFAA5C"/>
<path d="M8.5085 8.69636C8.20025 8.69636 7.93146 8.52602 7.78484 8.27271C7.71029 8.40142 7.66675 8.55124 7.66675 8.71178C7.66675 9.18832 8.04361 9.57457 8.50855 9.57457C8.86789 9.57457 9.17981 9.78447 9.33521 10.0906C9.40203 9.95899 9.44045 9.80988 9.44045 9.65153C9.44041 9.1248 9.02234 8.69636 8.5085 8.69636V8.69636Z" fill="#FFAA5C"/>
<path d="M8.50853 12.3321C7.25497 12.3321 6.20498 11.4233 5.9517 10.2149C5.91433 10.3125 5.89307 10.4185 5.89307 10.5297C5.89307 12.0078 7.06636 13.2103 8.50853 13.2103C9.9507 13.2103 11.124 12.0078 11.124 10.5297C11.124 10.3802 11.1113 10.2338 11.0883 10.0909C10.883 11.3606 9.80466 12.3321 8.50853 12.3321V12.3321Z" fill="#FFAA5C"/>
</svg>