
<svg width="18" height="24" viewBox="0 0 18 24" fill="none" xmlns="http://www.w3.org/2000/svg">
<path d="M4.11049 16.646L3.12755 16.6924L1.22181 21.9924C1.16108 22.1612 1.30239 22.3338 1.48606 22.3151L4.15737 22.0444C4.23199 22.0369 4.30618 22.0618 4.35984 22.1126L6.28015 23.9304C6.41216 24.0553 6.63366 24.0049 6.69434 23.8361L8.61253 18.5015L8.04691 17.9702L4.11049 16.646Z" fill="#E01E37"/>
<path d="M8.61242 18.5016L9.00002 17.4237L3.51388 15.6178L3.12744 16.6925C4.68529 17.7685 6.57157 18.4272 8.61242 18.5016Z" fill="#E01E37"/>
<path d="M13.8897 16.646L14.8726 16.6924L16.7784 21.9924C16.8391 22.1612 16.6978 22.3338 16.5141 22.3151L13.8428 22.0444C13.7682 22.0369 13.694 22.0618 13.6404 22.1126L11.7201 23.9304C11.5881 24.0553 11.3666 24.0049 11.3059 23.8361L9.3877 18.5015L9.95331 17.9702L13.8897 16.646Z" fill="#E01E37"/>
<path d="M9.3876 18.5016L9 17.4237L14.4861 15.6178L14.8726 16.6925C13.3147 17.7685 11.4284 18.4272 9.3876 18.5016Z" fill="#E01E37"/>
<path d="M9.00042 16.8805C0.000415687 16.8805 0.00419324 8.41815 0.0116508 8.2727C0.247919 3.66535 4.18197 0 9.00042 0C13.8189 0 17.7529 3.66535 17.9892 8.27275C17.9966 8.4182 18.0004 16.8805 9.00042 16.8805Z" fill="#F9CF58"/>
<path d="M9 16.5455C4.18155 16.5455 0.247649 12.8801 0.0113317 8.27271C0.00387411 8.41816 0 8.56455 0 8.71178C0 13.5232 4.02945 17.4236 9 17.4236C13.9706 17.4236 18 13.5232 18 8.71178C18 8.5645 17.9961 8.41816 17.9887 8.27271C17.7524 12.8801 13.8184 16.5455 9 16.5455Z" fill="#F9CF58"/>
<path d="M9.00026 15.0058C1.92445 15.0058 1.91496 8.2707 1.92445 8.12548C2.1584 4.53973 5.23691 1.70154 9.00026 1.70154C12.7636 1.70154 15.8421 4.53973 16.0761 8.12548C16.0856 8.27066 16.0761 15.0058 9.00026 15.0058Z" fill="#F9CF58"/>
<path d="M9.00025 14.6967C5.23695 14.6967 2.15897 11.8584 1.92502 8.27271C1.91553 8.41792 1.91016 8.56427 1.91016 8.71178C1.91016 12.5021 5.08451 15.5749 9.00025 15.5749C12.916 15.5749 16.0903 12.5021 16.0903 8.71178C16.0903 8.56422 16.085 8.41792 16.0755 8.27271C15.8415 11.8584 12.7636 14.6967 9.00025 14.6967Z" fill="#FFAC3E"/>
<path d="M9.40451 12.7885C8.91226 12.7885 8.51319 12.4023 8.51319 11.9257V11.4694V7.09052C8.51319 7.09052 7.97987 7.60826 7.34177 7.29762C6.84424 7.05541 6.84424 6.43202 6.84424 6.43202L7.94317 4.63643C8.10365 4.37421 8.39517 4.21338 8.71004 4.21338H9.40451C9.89676 4.21338 10.2958 4.59963 10.2958 5.07616V11.4694V11.9257C10.2958 12.4023 9.89676 12.7885 9.40451 12.7885Z" fill="#FFAC3E"/>
<path d="M8.3907 6.41248C8.15414 6.79906 7.65115 6.96669 7.23163 6.77426C7.06185 6.6964 6.93096 6.57542 6.84394 6.43255C6.59644 6.83783 6.73043 7.35922 7.14253 7.60554C7.56751 7.8596 8.1354 7.70792 8.38993 7.2919L8.51322 7.09039V6.44487C8.51322 6.38009 8.42484 6.3567 8.3907 6.41248Z" fill="#F9CF58"/>
<path d="M9.40451 12.3321C8.91226 12.3321 8.51318 11.9459 8.51318 11.4694V12.3476C8.51318 12.8241 8.91226 13.2103 9.40451 13.2103C9.89675 13.2103 10.2958 12.8241 10.2958 12.3476V11.4694C10.2958 11.9459 9.89675 12.3321 9.40451 12.3321Z" fill="#F9CF58"/>
</svg>
