<svg width="18" height="24" viewBox="0 0 18 24" fill="none" xmlns="http://www.w3.org/2000/svg">
<path d="M8.00585 17.9434L4.00928 16.6055L3.1275 16.6924L1.22181 21.9924C1.16108 22.1612 1.30239 22.3338 1.48606 22.3152L4.15737 22.0444C4.23199 22.0369 4.30618 22.0619 4.35984 22.1126L6.28015 23.9304C6.41216 24.0554 6.63366 24.005 6.69434 23.8362L8.61253 18.5016L8.00585 17.9434Z" fill="#E01E37"/>
<path d="M8.61242 18.5016L9.00002 17.4237L3.51388 15.6178L3.12744 16.6925C4.68529 17.7685 6.57157 18.4272 8.61242 18.5016Z" fill="#E01E37"/>
<path d="M9.99427 17.9434L13.9908 16.6055L14.8726 16.6924L16.7784 21.9924C16.839 22.1612 16.6978 22.3338 16.5141 22.3152L13.8428 22.0444C13.7682 22.0369 13.694 22.0619 13.6404 22.1126L11.7201 23.9304C11.5881 24.0554 11.3666 24.005 11.3059 23.8362L9.3877 18.5016L9.99427 17.9434Z" fill="#E01E37"/>
<path d="M9.3876 18.5016L9 17.4237L14.4861 15.6178L14.8726 16.6925C13.3147 17.7685 11.4284 18.4272 9.3876 18.5016Z" fill="#E01E37"/>
<path d="M8.9999 16.8487C0.0111375 16.8487 0.00367964 8.4182 0.0111372 8.27274C0.247406 3.66535 4.18146 0 8.9999 0C13.8152 0 17.7472 3.66047 17.9882 8.26351C17.996 8.41201 17.9882 16.8487 8.9999 16.8487Z" fill="#9E9E9E"/>
<path d="M9 16.5455C4.18155 16.5455 0.247649 12.8801 0.0113317 8.27271C0.00387411 8.41816 0 8.56455 0 8.71178C0 13.5232 4.02945 17.4236 9 17.4236C13.9706 17.4236 18 13.5232 18 8.71178C18 8.5645 17.9961 8.41816 17.9887 8.27271C17.7524 12.8801 13.8184 16.5455 9 16.5455Z" fill="#9E9E9E"/>
<path d="M8.99982 15.0296C1.90973 15.0296 1.91452 8.41792 1.92402 8.2727C2.15796 4.68695 5.23647 1.84875 8.99982 1.84875C12.7632 1.84875 15.8417 4.68695 16.0756 8.2727C16.0851 8.41792 16.0756 15.0296 8.99982 15.0296Z" fill="#9E9E9E"/>
<path d="M9.00025 14.6967C5.23695 14.6967 2.15897 11.8584 1.92502 8.27271C1.91553 8.41792 1.91016 8.56427 1.91016 8.71178C1.91016 12.5021 5.0845 15.5749 9.00025 15.5749C12.916 15.5749 16.0903 12.5021 16.0903 8.71178C16.0903 8.56422 16.085 8.41792 16.0755 8.27271C15.8415 11.8584 12.7636 14.6967 9.00025 14.6967Z" fill="#898989"/>
<path d="M11.0409 12.7885H6.97695C6.4847 12.7885 6.10461 11.9591 6.14166 11.7695C6.24446 11.2431 6.48645 10.7471 6.84775 10.3337L9.70723 7.06235C9.97478 6.75626 9.85541 6.42644 9.81241 6.3326C9.76016 6.21855 9.59769 5.95188 9.2192 5.93951C9.20826 5.93913 9.19687 5.93894 9.18549 5.93894C8.65383 5.93894 8.22134 6.35763 8.22134 6.87227C8.22134 7.34876 7.82227 7.73506 7.33002 7.73506C6.83777 7.73506 6.4387 7.3488 6.4387 6.87227C6.4387 5.40621 7.67089 4.21338 9.18549 4.21338C9.21683 4.21338 9.24801 4.21389 9.27905 4.21493C10.2267 4.24586 11.0554 4.78933 11.442 5.63313C11.8343 6.48954 11.691 7.46426 11.068 8.17695L8.20861 11.4483C8.1981 11.4603 8.18778 11.4725 8.17771 11.4849H11.041C11.3674 11.4849 11.6528 11.6547 11.8081 11.9081C11.8869 12.0368 11.5332 12.7885 11.0409 12.7885Z" fill="#E0E0E0"/>
<path d="M11.0407 12.3322H6.97677C6.59372 12.3322 6.26806 12.0979 6.14201 11.7697C6.10496 11.9593 6.08545 12.1527 6.08545 12.3477C6.08545 12.8242 6.48453 13.2105 6.97677 13.2105H11.0407C11.533 13.2105 11.9321 12.8242 11.9321 12.3477C11.9321 12.1871 11.8859 12.0373 11.807 11.9086C11.6517 12.1619 11.3671 12.3322 11.0407 12.3322Z" fill="#CECECE"/>
</svg>
