<svg width="20" height="18" viewBox="0 0 20 18" fill="none" xmlns="http://www.w3.org/2000/svg">
<path fill-rule="evenodd" clip-rule="evenodd" d="M15.638 3.35546C15.556 3.35546 15.481 3.30751 15.41 3.15867C15.126 2.5563 14.778 1.82008 14.569 1.40851C14.111 0.507464 13.325 0.00699262 12.348 0H7.646C6.676 0.00699262 5.889 0.507464 5.431 1.40951C5.228 1.80909 4.893 2.51834 4.614 3.11072L4.555 3.23459C4.52 3.30851 4.446 3.35546 4.363 3.35546C1.957 3.35546 0 5.31039 0 7.71286V13.6426C0 16.0451 1.957 18 4.363 18H5.108C5.522 18 5.858 17.6644 5.858 17.2508C5.858 16.8372 5.522 16.5016 5.108 16.5016H4.363C2.784 16.5016 1.5 15.2189 1.5 13.6426V7.71286C1.5 6.13652 2.784 4.85388 4.363 4.85388C5.022 4.85388 5.63 4.46928 5.911 3.87491L5.97 3.75004C6.243 3.17065 6.571 2.47739 6.769 2.0868C6.974 1.68322 7.249 1.50142 7.653 1.49842H12.342C12.752 1.50142 13.026 1.68322 13.231 2.0858C13.435 2.48937 13.776 3.20961 14.09 3.87491C14.371 4.46928 14.979 4.85388 15.638 4.85388C17.216 4.85388 18.5 6.13652 18.5 7.71286V13.6426C18.5 15.2189 17.216 16.5016 15.638 16.5016H8.58C8.166 16.5016 7.83 16.8372 7.83 17.2508C7.83 17.6644 8.166 18 8.58 18H15.638C18.043 18 20 16.0451 20 13.6426V7.71286C20 5.31039 18.043 3.35546 15.638 3.35546ZM10.0008 14.2541C11.0518 14.2541 12.0418 13.8405 12.7888 13.0893C13.5318 12.3421 13.9378 11.3591 13.9288 10.3272C13.9298 9.2803 13.5198 8.29235 12.7748 7.54813C12.0308 6.80492 11.0458 6.39635 10.0008 6.39635H9.9988C9.7108 6.39635 9.4228 6.42732 9.1438 6.49125C8.7398 6.58015 8.4848 6.98173 8.5758 7.3853C8.6658 7.78788 9.0658 8.04561 9.4708 7.95171C9.6438 7.91375 9.8208 7.89477 9.9998 7.89477H10.0008C10.6458 7.89477 11.2538 8.1485 11.7138 8.60801C12.1758 9.06953 12.4298 9.67888 12.4288 10.3322C12.4338 10.9675 12.1838 11.5709 11.7248 12.0334C11.2618 12.4989 10.6488 12.7556 10.0008 12.7556H9.9988C9.3508 12.7546 8.7418 12.5009 8.2828 12.0404C7.8228 11.5799 7.5708 10.9695 7.5718 10.3202C7.5718 10.0715 7.6108 9.82473 7.6868 9.58798C7.8118 9.1944 7.5938 8.77284 7.1988 8.64697C6.8018 8.5231 6.3818 8.73888 6.2568 9.13346C6.1348 9.51805 6.0718 9.91563 6.0718 10.3192C6.0698 11.3661 6.4778 12.3541 7.2198 13.0983C7.9618 13.8425 8.9478 14.2531 9.9968 14.2541H10.0008ZM15.9801 7.75212C15.9101 7.82204 15.8301 7.88198 15.7401 7.92194C15.6501 7.9619 15.5501 7.97288 15.4501 7.97288C15.2601 7.97288 15.0701 7.90196 14.9201 7.75212C14.7801 7.61226 14.7001 7.42247 14.7001 7.22367C14.7001 7.13277 14.7201 7.03288 14.7601 6.94397C14.8001 6.85406 14.8601 6.76416 14.9201 6.69423C14.9901 6.6333 15.0801 6.57336 15.1701 6.5334C15.3501 6.46348 15.5601 6.46348 15.7401 6.5334C15.8301 6.57336 15.9201 6.6333 15.9801 6.69423C16.0501 6.76416 16.1101 6.85406 16.1501 6.94397C16.1901 7.03288 16.2101 7.13277 16.2101 7.22367C16.2101 7.42247 16.1301 7.61226 15.9801 7.75212Z" fill="white"/>
</svg>
