<svg width="24" height="24" viewBox="0 0 24 24" fill="none" xmlns="http://www.w3.org/2000/svg">
<path fill-rule="evenodd" clip-rule="evenodd" d="M1.99982 12C1.99982 6.485 6.48582 2 11.9998 2C17.5138 2 21.9998 6.485 21.9998 12C21.9998 17.514 17.5138 22 11.9998 22C8.87282 22 5.98282 20.577 4.07282 18.098C3.82782 17.779 3.88782 17.322 4.20582 17.078C4.52382 16.832 4.97882 16.893 5.22482 17.21C6.85782 19.33 9.32682 20.546 11.9998 20.546C16.7118 20.546 20.5458 16.713 20.5458 12C20.5458 7.288 16.7118 3.454 11.9998 3.454C7.28782 3.454 3.45482 7.288 3.45482 12C3.45482 12.438 3.48682 12.873 3.55182 13.299C3.61182 13.695 3.33982 14.066 2.94282 14.127C2.54382 14.193 2.17482 13.916 2.11482 13.519C2.03882 13.021 1.99982 12.51 1.99982 12ZM10.9339 7.8374C10.9339 7.4354 11.2599 7.1094 11.6609 7.1094C12.0619 7.1094 12.3879 7.4354 12.3879 7.8374V12.2834L15.8119 14.3254C16.1569 14.5314 16.2699 14.9774 16.0639 15.3224C15.9289 15.5494 15.6869 15.6764 15.4399 15.6764C15.3129 15.6764 15.1839 15.6434 15.0679 15.5744L11.2879 13.3204C11.0689 13.1884 10.9339 12.9514 10.9339 12.6954V7.8374Z" fill="white"/>
</svg>
