<svg width="24" height="24" viewBox="0 0 24 24" fill="none" xmlns="http://www.w3.org/2000/svg">
<path fill-rule="evenodd" clip-rule="evenodd" d="M22.0001 10.822C22.0001 11.239 21.6611 11.578 21.2441 11.578H21.2351V11.56C20.8131 11.56 20.4711 11.219 20.4701 10.797V10.795V8.253C20.4701 5.2 18.8001 3.53 15.7561 3.53H8.25612C5.21012 3.53 3.53012 5.21 3.53012 8.253V15.753C3.53012 18.787 5.21012 20.467 8.25312 20.467H15.7531C18.7961 20.467 20.4671 18.787 20.4671 15.753C20.4671 15.331 20.8091 14.988 21.2321 14.988C21.6551 14.988 21.9971 15.331 21.9971 15.753C22.0001 19.608 19.6081 22 15.7561 22H8.25312C4.39212 22 2.00012 19.608 2.00012 15.756V8.256C2.00012 4.392 4.39212 2 8.25312 2H15.7531C19.5901 2 22.0001 4.392 22.0001 8.253V10.822ZM10.8137 13.3135L15.0297 9.0965C15.3227 8.8035 15.7977 8.8035 16.0907 9.0965C16.3837 9.3895 16.3837 9.8645 16.0907 10.1575L11.3437 14.9045C11.2027 15.0445 11.0117 15.1235 10.8137 15.1235C10.6137 15.1235 10.4237 15.0445 10.2827 14.9045L7.90972 12.5305C7.61672 12.2375 7.61672 11.7625 7.90972 11.4695C8.20272 11.1765 8.67772 11.1765 8.97072 11.4695L10.8137 13.3135Z" fill="white"/>
</svg>
